<svg xmlns="http://www.w3.org/2000/svg" width="1050" height="1052">
<path style="fill: none;stroke:none;" d="M0 0L0 386L0 480C0 493.465 -2.87421 510.673 0.459105 523.714C10.027 561.148 35.5752 594.737 63 620.961C128.168 683.275 219.231 715.342 307 728.272C476.729 753.275 657.143 721.647 817 662.05C876.597 639.832 936.841 613.184 988 574.873C1015.92 553.962 1041.23 530.444 1051 496L1052 496C1056.41 514.509 1052.86 537.159 1052.04 556C1050.6 588.782 1047.34 625.695 1033.69 656C1004 721.893 931.132 760.045 866 782.656C781.479 811.998 691.71 821.155 603 825.039C475.873 830.606 342.117 820.723 222 775.424C166.888 754.639 113.302 729.385 67 692.4C45.5197 675.241 23.984 656.481 12.3086 631C2.53244 609.664 1 581.207 1 558L0 558L0 1052L492 1052L492 1051C416.049 1051 335.547 1022.43 270 985.86C254.161 977.024 238.906 967.347 224 957.025C216.804 952.042 208.233 947.105 203 940C233.21 952.578 261.421 967.769 293 977.28C433.475 1019.59 593.952 1020.79 735 980.573C764.209 972.245 793.635 961.982 821 948.742C839.084 939.991 855.95 928.537 874 920C868.201 928.164 858.85 934.306 851 940.424C835.884 952.207 820.275 963.291 804 973.424C733.762 1017.15 644.812 1051 561 1051L561 1052L2560 1052L2560 0L559 0L559 1C630.831 1 710.859 25.7261 773 61C787.851 69.4299 803.996 77.0347 816.996 88.3002C823.169 93.6492 828.83 101.404 827.696 110C823.805 139.504 786.031 156.919 762 167.281C692.313 197.33 608.522 209.879 533 210C452.708 210.129 367.226 209.77 291 180.808C265.538 171.133 228.369 156.972 218.093 129C206.445 97.2903 250.063 77.3776 272 65.1396C337.608 28.539 418.114 1 494 1C482.782 -3.70728 463.206 0 451 0L350 0L0 0z"/>
<path style="fill:#019cd5; stroke:none;" d="M494 0L495 1L494 0z"/>
<path style="fill:#01a9e1; stroke:none;" d="M495 0.424438C474.704 3.08899 454.268 3.7688 434 7.42432C377.8 17.5605 322.926 36.2874 273 64.1396C250.706 76.5767 207.185 95.7308 217.465 128C221.478 140.601 232.393 150.447 243 157.656C265.052 172.644 290.518 181.637 316 188.86C416 217.204 527.856 215.477 630 201.718C684.127 194.426 739.824 181.029 788 154.769C804.994 145.506 831.806 126.811 827.532 104C825.652 93.9612 817.838 88.0287 810 82.4275C793.245 70.454 774.392 60.9256 756 51.7531C696.16 21.9099 629.471 5.4679 563 0.910522C541.185 -0.585205 516.759 -2.43225 495 0.424438z"/>
<path style="fill:#0181ff; stroke:none;" d="M599 4L600 5L599 4z"/>
<path style="fill:#019cd5; stroke:none;" d="M612 6L613 7L612 6z"/>
<path style="fill:#01ffff; stroke:none;" d="M634 10L635 11L634 10z"/>
<path style="fill:#0181ff; stroke:none;" d="M409 12L410 13L409 12z"/>
<path style="fill:#019cd5; stroke:none;" d="M389 17L390 18L389 17z"/>
<path style="fill:#01ffff; stroke:none;" d="M667 18L668 19L667 18z"/>
<path style="fill:#019cd5; stroke:none;" d="M677 21L678 22L677 21z"/>
<path style="fill:#01ffff; stroke:none;" d="M350 29L351 30L350 29z"/>
<path style="fill:#019cd5; stroke:none;" d="M342 32L343 33L342 32z"/>
<path style="fill:#01ffff; stroke:none;" d="M339 33L340 34L339 33z"/>
<path style="fill:#019cd5; stroke:none;" d="M725 38L726 39L725 38z"/>
<path style="fill:#0181ff; stroke:none;" d="M324 39L325 40L324 39z"/>
<path style="fill:#01ffff; stroke:none;" d="M730 40L731 41L730 40z"/>
<path style="fill:#019cd5; stroke:none;" d="M317 42L318 43L317 42z"/>
<path style="fill:#01ffff; stroke:none;" d="M737 43L738 44L737 43M308 46L309 47L308 46z"/>
<path style="fill:#019cd5; stroke:none;" d="M770 59L771 60L770 59M274 63L275 64L274 63z"/>
<path style="fill:#01ffff; stroke:none;" d="M265 68L266 69L265 68M790 70L791 71L790 70z"/>
<path style="fill:#019cd5; stroke:none;" d="M795 73L796 74L795 73M255 74L256 75L255 74z"/>
<path style="fill:#01ffff; stroke:none;" d="M250 77L251 78L250 77z"/>
<path style="fill:#019cd5; stroke:none;" d="M247 79L248 80L247 79M812 84L813 85L812 84z"/>
<path style="fill:#01ffff; stroke:none;" d="M238 85L239 86L238 85M816 87L817 88L816 87M228 93L229 94L228 93M224 97L225 98L224 97M827 103L828 104L827 103z"/>
<path style="fill:#01a9e1; stroke:none;" d="M873 131C874.324 135.64 876.803 140.062 876.82 145C876.885 163.254 859.658 180.697 847 191.711C814.501 219.988 773.338 239.889 733 254.308C642.717 286.579 549.369 300.863 454 305.039C402.865 307.278 351.375 306.273 301 296.2C239.925 283.987 158.658 247.138 166.171 172C168.099 152.717 180.129 140.545 188 124C181.313 125.876 176.017 132.301 171 136.914C160.177 146.868 149.227 156.869 139.576 168C124.403 185.499 97.9695 207.72 94.6551 232C91.6381 254.101 107.351 276.397 122 290.999C155.738 324.629 203.463 344.488 248 359.333C349.885 393.295 455.394 405.371 562 410.039C647.988 413.805 738.531 407.005 821 380.656C862.436 367.417 902.063 348.086 932.999 317C954.198 295.698 967.665 263.036 958.961 233C952.186 209.623 933.912 191.749 918.286 174C906.237 160.315 889.825 138.499 873 131z"/>
<path style="fill:#01ffff; stroke:none;" d="M187 125L188 126L187 125M178 130L179 131L178 130z"/>
<path style="fill:#019cd5; stroke:none;" d="M219 132L220 133L219 132M181 133L182 134L181 133z"/>
<path style="fill:#01ffff; stroke:none;" d="M878 134L879 135L878 134M224 140L225 141L224 140z"/>
<path style="fill:#0181ff; stroke:none;" d="M808 140L809 141L808 140z"/>
<path style="fill:#01ffff; stroke:none;" d="M803 144L804 145L803 144z"/>
<path style="fill:#019cd5; stroke:none;" d="M800 146L801 147L800 146z"/>
<path style="fill:#0181ff; stroke:none;" d="M876 148L877 149L876 148z"/>
<path style="fill:#019cd5; stroke:none;" d="M171 151L172 152L171 151M875 153L876 154L875 153M784 156L785 157L784 156z"/>
<path style="fill:#0181ff; stroke:none;" d="M244 158L245 159L244 158M252 163L253 164L252 163z"/>
<path style="fill:#01ffff; stroke:none;" d="M766 165L767 166L766 165M139 168L140 169L139 168M759 168L760 169L759 168z"/>
<path style="fill:#0181ff; stroke:none;" d="M865 172L866 173L865 172z"/>
<path style="fill:#019cd5; stroke:none;" d="M917 173L918 174L917 173z"/>
<path style="fill:#0181ff; stroke:none;" d="M274 174L275 175L274 174M918 174L919 175L918 174z"/>
<path style="fill:#019cd5; stroke:none;" d="M279 176L280 177L279 176M131 177L132 178L131 177z"/>
<path style="fill:#01ffff; stroke:none;" d="M735 177L736 178L735 177z"/>
<path style="fill:#0181ff; stroke:none;" d="M861 177L862 178L861 177M130 178L131 179L130 178z"/>
<path style="fill:#019cd5; stroke:none;" d="M284 178L285 179L284 178z"/>
<path style="fill:#01ffff; stroke:none;" d="M292 181L293 182L292 181z"/>
<path style="fill:#0181ff; stroke:none;" d="M295 182L296 183L295 182M719 182L720 183L719 182M926 183L927 184L926 183M301 184L302 185L301 184z"/>
<path style="fill:#019cd5; stroke:none;" d="M712 184L713 185L712 184M311 187L312 188L311 187z"/>
<path style="fill:#01ffff; stroke:none;" d="M701 187L702 188L701 187z"/>
<path style="fill:#0181ff; stroke:none;" d="M697 188L698 189L697 188z"/>
<path style="fill:#01ffff; stroke:none;" d="M318 189L319 190L318 189z"/>
<path style="fill:#019cd5; stroke:none;" d="M119 191L120 192L119 191z"/>
<path style="fill:#01ffff; stroke:none;" d="M847 191L848 192L847 191z"/>
<path style="fill:#019cd5; stroke:none;" d="M846 192L847 193L846 192z"/>
<path style="fill:#01ffff; stroke:none;" d="M334 193L335 194L334 193z"/>
<path style="fill:#0181ff; stroke:none;" d="M348 196L349 197L348 196z"/>
<path style="fill:#019cd5; stroke:none;" d="M660 196L661 197L660 196z"/>
<path style="fill:#01ffff; stroke:none;" d="M937 196L938 197L937 196z"/>
<path style="fill:#0181ff; stroke:none;" d="M649 198L650 199L649 198M364 199L365 200L364 199z"/>
<path style="fill:#01ffff; stroke:none;" d="M832 203L833 204L832 203z"/>
<path style="fill:#019cd5; stroke:none;" d="M399 204L400 205L399 204z"/>
<path style="fill:#01ffff; stroke:none;" d="M107 206L108 207L107 206z"/>
<path style="fill:#019cd5; stroke:none;" d="M418 206L419 207L418 206M444 208L445 209L444 208z"/>
<path style="fill:#01ffff; stroke:none;" d="M825 208L826 209L825 208M822 210L823 211L822 210z"/>
<path style="fill:#019cd5; stroke:none;" d="M950 214L951 215L950 214M101 215L102 216L101 215M811 217L812 218L811 217M806 220L807 221L806 220M178 226L179 227L178 226z"/>
<path style="fill:#0181ff; stroke:none;" d="M771 238L772 239L771 238z"/>
<path style="fill:#019cd5; stroke:none;" d="M960 240L961 241L960 240M760 243L761 244L760 243M748 248L749 249L748 248z"/>
<path style="fill:#0181ff; stroke:none;" d="M961 253L962 254L961 253z"/>
<path style="fill:#01ffff; stroke:none;" d="M105 270L106 271L105 270z"/>
<path style="fill:#0181ff; stroke:none;" d="M684 270L685 271L684 270z"/>
<path style="fill:#019cd5; stroke:none;" d="M959 270L960 271L959 270z"/>
<path style="fill:#0181ff; stroke:none;" d="M107 273L108 274L107 273M958 274L959 275L958 274z"/>
<path style="fill:#019cd5; stroke:none;" d="M957 277L958 278L957 277M244 279L245 280L244 279z"/>
<path style="fill:#0181ff; stroke:none;" d="M113 281L114 282L113 281z"/>
<path style="fill:#019cd5; stroke:none;" d="M254 283L255 284L254 283z"/>
<path style="fill:#0181ff; stroke:none;" d="M628 284L629 285L628 284z"/>
<path style="fill:#01ffff; stroke:none;" d="M954 285L955 286L954 285z"/>
<path style="fill:#019cd5; stroke:none;" d="M953 287L954 288L953 287M603 289L604 290L603 289M952 289L953 290L952 289M951 291L952 292L951 291z"/>
<path style="fill:#01ffff; stroke:none;" d="M950 293L951 294L950 293z"/>
<path style="fill:#01a9e1; stroke:none;" d="M998 293C993.904 308.143 994.367 321.589 986.127 336C974.165 356.921 955.402 373.556 936 387.421C896.572 415.598 850.691 435.435 805 451.003C636.099 508.552 450.332 538.04 274 502.199C216.628 490.538 157.064 468.741 110 433.373C82.9521 413.047 59.7299 387.148 50.4282 354C45.0345 334.778 51.1738 317.951 52 299L51 299C35.4067 325.716 25.3924 358.181 17.6289 388C14.2843 400.846 9.50714 414.692 12.6759 428C18.1294 450.904 39.6955 471.012 57 485.414C100.004 521.203 152.32 544.107 205 561.667C325.692 601.897 453.804 611.503 580 613.004C679.657 614.189 783.569 607.477 879 575.667C946.13 553.29 1033.35 512.082 1038.91 431C1040.75 404.197 1032.78 378.089 1024.33 353C1019.43 338.438 1013.74 323.914 1007.22 310C1004.53 304.263 1002.56 297.508 998 293z"/>
<path style="fill:#01ffff; stroke:none;" d="M292 294L293 295L292 294z"/>
<path style="fill:#019cd5; stroke:none;" d="M573 294L574 295L573 294z"/>
<path style="fill:#0181ff; stroke:none;" d="M566 295L567 296L566 295z"/>
<path style="fill:#019cd5; stroke:none;" d="M997 295L998 296L997 295z"/>
<path style="fill:#0181ff; stroke:none;" d="M559 296L560 297L559 296z"/>
<path style="fill:#019cd5; stroke:none;" d="M130 298L131 299L130 298z"/>
<path style="fill:#01ffff; stroke:none;" d="M312 298L313 299L312 298M947 298L948 299L947 298M131 299L132 300L131 299z"/>
<path style="fill:#019cd5; stroke:none;" d="M318 299L319 300L318 299z"/>
<path style="fill:#0181ff; stroke:none;" d="M945 301L946 302L945 301z"/>
<path style="fill:#019cd5; stroke:none;" d="M351 303L352 304L351 303z"/>
<path style="fill:#01ffff; stroke:none;" d="M364 304L365 305L364 304M473 304L474 305L473 304z"/>
<path style="fill:#019cd5; stroke:none;" d="M1004 304L1005 305L1004 304M140 306L141 307L140 306M996 308L997 309L996 308z"/>
<path style="fill:#01ffff; stroke:none;" d="M1009 315L1010 316L1009 315M931 318L932 319L931 318M48 319L49 320L48 319M930 319L931 320L930 319M929 320L930 321L929 320z"/>
<path style="fill:#0181ff; stroke:none;" d="M928 321L929 322L928 321M927 322L928 323L927 322z"/>
<path style="fill:#019cd5; stroke:none;" d="M166 323L167 324L166 323M177 329L178 330L177 329z"/>
<path style="fill:#0181ff; stroke:none;" d="M918 330L919 331L918 330z"/>
<path style="fill:#01ffff; stroke:none;" d="M913 334L914 335L913 334z"/>
<path style="fill:#0181ff; stroke:none;" d="M193 337L194 338L193 337z"/>
<path style="fill:#01ffff; stroke:none;" d="M909 337L910 338L909 337z"/>
<path style="fill:#0181ff; stroke:none;" d="M1018 337L1019 338L1018 337z"/>
<path style="fill:#01ffff; stroke:none;" d="M902 342L903 343L902 342M1021 345L1022 346L1021 345z"/>
<path style="fill:#0181ff; stroke:none;" d="M216 347L217 348L216 347M221 349L222 350L221 349z"/>
<path style="fill:#019cd5; stroke:none;" d="M977 349L978 350L977 349z"/>
<path style="fill:#01ffff; stroke:none;" d="M29 350L30 351L29 350z"/>
<path style="fill:#019cd5; stroke:none;" d="M49 350L50 351L49 350z"/>
<path style="fill:#01ffff; stroke:none;" d="M884 353L885 354L884 353z"/>
<path style="fill:#0181ff; stroke:none;" d="M50 354L51 355L50 354z"/>
<path style="fill:#01ffff; stroke:none;" d="M234 354L235 355L234 354z"/>
<path style="fill:#019cd5; stroke:none;" d="M882 354L883 355L882 354M25 362L26 363L25 362z"/>
<path style="fill:#01ffff; stroke:none;" d="M860 365L861 366L860 365z"/>
<path style="fill:#0181ff; stroke:none;" d="M23 368L24 369L23 368z"/>
<path style="fill:#019cd5; stroke:none;" d="M55 369L56 370L55 369z"/>
<path style="fill:#01ffff; stroke:none;" d="M22 371L23 372L22 371M56 371L57 372L56 371M843 372L844 373L843 372M949 377L950 378L949 377z"/>
<path style="fill:#0181ff; stroke:none;" d="M944 381L945 382L944 381z"/>
<path style="fill:#01ffff; stroke:none;" d="M814 382L815 383L814 382z"/>
<path style="fill:#019cd5; stroke:none;" d="M1033 383L1034 384L1033 383z"/>
<path style="fill:#0181ff; stroke:none;" d="M940 384L941 385L940 384z"/>
<path style="fill:#019cd5; stroke:none;" d="M800 386L801 387L800 386z"/>
<path style="fill:#0181ff; stroke:none;" d="M66 389L67 390L66 389z"/>
<path style="fill:#01ffff; stroke:none;" d="M933 389L934 390L933 389M16 392L17 393L16 392M767 394L768 395L767 394z"/>
<path style="fill:#0181ff; stroke:none;" d="M762 395L763 396L762 395z"/>
<path style="fill:#01ffff; stroke:none;" d="M71 396L72 397L71 396M746 398L747 399L746 398M14 400L15 401L14 400z"/>
<path style="fill:#019cd5; stroke:none;" d="M74 400L75 401L74 400z"/>
<path style="fill:#01ffff; stroke:none;" d="M734 400L735 401L734 400M75 401L76 402L75 401M713 403L714 404L713 403M911 403L912 404L911 403M696 405L697 406L696 405z"/>
<path style="fill:#019cd5; stroke:none;" d="M81 408L82 409L81 408z"/>
<path style="fill:#0181ff; stroke:none;" d="M661 408L662 409L661 408M643 409L644 410L643 409M83 410L84 411L83 410z"/>
<path style="fill:#01ffff; stroke:none;" d="M615 410L616 411L615 410M1038 410L1039 411L1038 410M84 411L85 412L84 411z"/>
<path style="fill:#0181ff; stroke:none;" d="M895 412L896 413L895 412z"/>
<path style="fill:#01ffff; stroke:none;" d="M893 413L894 414L893 413M88 415L89 416L88 415M89 416L90 417L89 416M11 421L12 422L11 421z"/>
<path style="fill:#019cd5; stroke:none;" d="M12 427L13 428L12 427z"/>
<path style="fill:#01ffff; stroke:none;" d="M104 429L105 430L104 429z"/>
<path style="fill:#0181ff; stroke:none;" d="M16 437L17 438L16 437M841 437L842 438L841 437z"/>
<path style="fill:#019cd5; stroke:none;" d="M116 438L117 439L116 438z"/>
<path style="fill:#0181ff; stroke:none;" d="M836 439L837 440L836 439z"/>
<path style="fill:#01ffff; stroke:none;" d="M119 440L120 441L119 440M1037 441L1038 442L1037 441M122 442L123 443L122 442z"/>
<path style="fill:#019cd5; stroke:none;" d="M826 443L827 444L826 443M818 446L819 447L818 446M1035 450L1036 451L1035 450z"/>
<path style="fill:#0181ff; stroke:none;" d="M26 453L27 454L26 453M798 453L799 454L798 453z"/>
<path style="fill:#01ffff; stroke:none;" d="M1033 457L1034 458L1033 457z"/>
<path style="fill:#019cd5; stroke:none;" d="M30 458L31 459L30 458z"/>
<path style="fill:#0181ff; stroke:none;" d="M780 459L781 460L780 459M155 461L156 462L155 461z"/>
<path style="fill:#01ffff; stroke:none;" d="M157 462L158 463L157 462M34 463L35 464L34 463M159 463L160 464L159 463M161 464L162 465L161 464z"/>
<path style="fill:#019cd5; stroke:none;" d="M163 465L164 466L163 465z"/>
<path style="fill:#0181ff; stroke:none;" d="M754 467L755 468L754 467z"/>
<path style="fill:#01ffff; stroke:none;" d="M174 470L175 471L174 470M191 477L192 478L191 477z"/>
<path style="fill:#0181ff; stroke:none;" d="M718 477L719 478L718 477M714 478L715 479L714 478z"/>
<path style="fill:#019cd5; stroke:none;" d="M196 479L197 480L196 479z"/>
<path style="fill:#01ffff; stroke:none;" d="M210 484L211 485L210 484z"/>
<path style="fill:#019cd5; stroke:none;" d="M57 485L58 486L57 485z"/>
<path style="fill:#01ffff; stroke:none;" d="M672 488L673 489L672 488z"/>
<path style="fill:#019cd5; stroke:none;" d="M1017 488L1018 489L1017 488z"/>
<path style="fill:#01ffff; stroke:none;" d="M63 490L64 491L63 490z"/>
<path style="fill:#0181ff; stroke:none;" d="M658 491L659 492L658 491z"/>
<path style="fill:#019cd5; stroke:none;" d="M235 492L236 493L235 492z"/>
<path style="fill:#01ffff; stroke:none;" d="M246 495L247 496L246 495z"/>
<path style="fill:#0181ff; stroke:none;" d="M71 496L72 497L71 496z"/>
<path style="fill:#01a9e1; stroke:none;" d="M1051 496C1038.35 533.051 1011.29 557.758 980 580.14C921.696 621.848 851.986 651.456 784 673.344C743.187 686.484 702.099 699.642 660 708.199C516.666 737.332 367.399 752.443 225 709.72C150.764 687.447 77.861 647.412 31.1543 584C17.4769 565.431 10.198 545.75 1 525L0 525C0 558.825 -1.8863 600.528 12.3117 632C23.4255 656.635 44.3412 674.922 65 691.449C111.556 728.695 166.032 755.705 222 775.692C361.654 825.566 511.495 832.179 658 822.089C737.039 816.646 819.576 803.786 893 772.716C947.779 749.536 1006.88 715.374 1032.69 659C1045.18 631.728 1048.32 600.483 1051.17 571C1052.91 553.011 1053 535.092 1053 517C1053 510.782 1054.87 501.113 1051 496z"/>
<path style="fill:#019cd5; stroke:none;" d="M623 498L624 499L623 498z"/>
<path style="fill:#01ffff; stroke:none;" d="M75 499L76 500L75 499z"/>
<path style="fill:#0181ff; stroke:none;" d="M617 499L618 500L617 499M78 501L79 502L78 501z"/>
<path style="fill:#019cd5; stroke:none;" d="M270 501L271 502L270 501M1049 501L1050 502L1049 501M600 502L601 503L600 502z"/>
<path style="fill:#01ffff; stroke:none;" d="M1005 503L1006 504L1005 503z"/>
<path style="fill:#019cd5; stroke:none;" d="M284 504L285 505L284 504z"/>
<path style="fill:#01ffff; stroke:none;" d="M1048 504L1049 505L1048 504z"/>
<path style="fill:#019cd5; stroke:none;" d="M84 505L85 506L84 505M581 505L582 506L581 505M1002 506L1003 507L1002 506z"/>
<path style="fill:#01ffff; stroke:none;" d="M300 507L301 508L300 507z"/>
<path style="fill:#019cd5; stroke:none;" d="M997 511L998 512L997 511z"/>
<path style="fill:#0181ff; stroke:none;" d="M95 512L96 513L95 512M996 512L997 513L996 512z"/>
<path style="fill:#01ffff; stroke:none;" d="M995 513L996 514L995 513M467 517L468 518L467 517z"/>
<path style="fill:#019cd5; stroke:none;" d="M988 519L989 520L988 519M1 525L2 526L1 525z"/>
<path style="fill:#01ffff; stroke:none;" d="M118 525L119 526L118 525z"/>
<path style="fill:#0181ff; stroke:none;" d="M1034 530L1035 531L1034 530z"/>
<path style="fill:#01ffff; stroke:none;" d="M134 533L135 534L134 533M960 539L961 540L960 539z"/>
<path style="fill:#019cd5; stroke:none;" d="M1025 541L1026 542L1025 541M154 542L155 543L154 542z"/>
<path style="fill:#0181ff; stroke:none;" d="M1024 542L1025 543L1024 542z"/>
<path style="fill:#01ffff; stroke:none;" d="M1023 543L1024 544L1023 543M161 545L162 546L161 545z"/>
<path style="fill:#0181ff; stroke:none;" d="M9 547L10 548L9 547z"/>
<path style="fill:#019cd5; stroke:none;" d="M171 549L172 550L171 549M938 551L939 552L938 551M179 552L180 553L179 552M934 553L935 554L934 553M932 554L933 555L932 554z"/>
<path style="fill:#01ffff; stroke:none;" d="M919 560L920 561L919 560M16 561L17 562L16 561M998 566L999 567L998 566z"/>
<path style="fill:#019cd5; stroke:none;" d="M997 567L998 568L997 567z"/>
<path style="fill:#01ffff; stroke:none;" d="M20 568L21 569L20 568z"/>
<path style="fill:#0181ff; stroke:none;" d="M899 568L900 569L899 568M888 572L889 573L888 572M244 573L245 574L244 573M885 573L886 574L885 573z"/>
<path style="fill:#01ffff; stroke:none;" d="M989 573L990 574L989 573z"/>
<path style="fill:#0181ff; stroke:none;" d="M882 574L883 575L882 574M879 575L880 576L879 575z"/>
<path style="fill:#019cd5; stroke:none;" d="M25 576L26 577L25 576z"/>
<path style="fill:#01ffff; stroke:none;" d="M876 576L877 577L876 576z"/>
<path style="fill:#0181ff; stroke:none;" d="M985 576L986 577L985 576z"/>
<path style="fill:#019cd5; stroke:none;" d="M866 579L867 580L866 579z"/>
<path style="fill:#0181ff; stroke:none;" d="M978 581L979 582L978 581z"/>
<path style="fill:#01ffff; stroke:none;" d="M856 582L857 583L856 582M30 583L31 584L30 583z"/>
<path style="fill:#019cd5; stroke:none;" d="M852 583L853 584L852 583z"/>
<path style="fill:#0181ff; stroke:none;" d="M308 588L309 589L308 588M313 589L314 590L313 589z"/>
<path style="fill:#01ffff; stroke:none;" d="M966 589L967 590L966 589z"/>
<path style="fill:#0181ff; stroke:none;" d="M318 590L319 591L318 590M963 591L964 592L963 591M815 592L816 593L815 592z"/>
<path style="fill:#019cd5; stroke:none;" d="M800 595L801 596L800 595M1048 595L1049 596L1048 595z"/>
<path style="fill:#0181ff; stroke:none;" d="M366 598L367 599L366 598z"/>
<path style="fill:#019cd5; stroke:none;" d="M4 599L5 600L4 599z"/>
<path style="fill:#01ffff; stroke:none;" d="M778 599L779 600L778 599z"/>
<path style="fill:#0181ff; stroke:none;" d="M950 599L951 600L950 599M396 602L397 603L396 602z"/>
<path style="fill:#01ffff; stroke:none;" d="M1047 602L1048 603L1047 602z"/>
<path style="fill:#0181ff; stroke:none;" d="M46 603L47 604L46 603z"/>
<path style="fill:#01ffff; stroke:none;" d="M423 605L424 606L423 605z"/>
<path style="fill:#019cd5; stroke:none;" d="M530 612L531 613L530 612M644 612L645 613L644 612z"/>
<path style="fill:#0181ff; stroke:none;" d="M908 622L909 623L908 622z"/>
<path style="fill:#019cd5; stroke:none;" d="M906 623L907 624L906 623z"/>
<path style="fill:#01ffff; stroke:none;" d="M9 624L10 625L9 624z"/>
<path style="fill:#019cd5; stroke:none;" d="M904 624L905 625L904 624z"/>
<path style="fill:#0181ff; stroke:none;" d="M68 625L69 626L68 625z"/>
<path style="fill:#01ffff; stroke:none;" d="M76 632L77 633L76 632M885 633L886 634L885 633M1040 636L1041 637L1040 636z"/>
<path style="fill:#0181ff; stroke:none;" d="M82 637L83 638L82 637M874 638L875 639L874 638z"/>
<path style="fill:#019cd5; stroke:none;" d="M19 644L20 645L19 644M21 647L22 648L21 647z"/>
<path style="fill:#01ffff; stroke:none;" d="M98 649L99 650L98 649z"/>
<path style="fill:#0181ff; stroke:none;" d="M23 650L24 651L23 650z"/>
<path style="fill:#01ffff; stroke:none;" d="M26 654L27 655L26 654z"/>
<path style="fill:#019cd5; stroke:none;" d="M105 654L106 655L105 654M1034 654L1035 655L1034 654M108 656L109 657L108 656z"/>
<path style="fill:#0181ff; stroke:none;" d="M119 663L120 664L119 663z"/>
<path style="fill:#019cd5; stroke:none;" d="M807 665L808 666L807 665z"/>
<path style="fill:#0181ff; stroke:none;" d="M124 666L125 667L124 666z"/>
<path style="fill:#019cd5; stroke:none;" d="M790 671L791 672L790 671z"/>
<path style="fill:#01ffff; stroke:none;" d="M45 674L46 675L45 674z"/>
<path style="fill:#019cd5; stroke:none;" d="M138 674L139 675L138 674z"/>
<path style="fill:#0181ff; stroke:none;" d="M140 675L141 676L140 675z"/>
<path style="fill:#01ffff; stroke:none;" d="M142 676L143 677L142 676z"/>
<path style="fill:#019cd5; stroke:none;" d="M775 676L776 677L775 676M772 677L773 678L772 677z"/>
<path style="fill:#01ffff; stroke:none;" d="M1019 681L1020 682L1019 681z"/>
<path style="fill:#019cd5; stroke:none;" d="M54 682L55 683L54 682z"/>
<path style="fill:#01ffff; stroke:none;" d="M756 682L757 683L756 682z"/>
<path style="fill:#019cd5; stroke:none;" d="M753 683L754 684L753 683z"/>
<path style="fill:#0181ff; stroke:none;" d="M158 684L159 685L158 684M1016 685L1017 686L1016 685M743 686L744 687L743 686z"/>
<path style="fill:#019cd5; stroke:none;" d="M65 691L66 692L65 691z"/>
<path style="fill:#0181ff; stroke:none;" d="M1007 696L1008 697L1007 696z"/>
<path style="fill:#019cd5; stroke:none;" d="M1006 697L1007 698L1006 697z"/>
<path style="fill:#01ffff; stroke:none;" d="M692 700L693 701L692 700M199 701L200 702L199 701M684 702L685 703L684 702M82 704L83 705L82 704z"/>
<path style="fill:#0181ff; stroke:none;" d="M663 707L664 708L663 707z"/>
<path style="fill:#01ffff; stroke:none;" d="M988 715L989 716L988 715z"/>
<path style="fill:#0181ff; stroke:none;" d="M620 716L621 717L620 716z"/>
<path style="fill:#01a9e1; stroke:none;" d="M1014 718C999.436 743.567 974.321 764.378 951 781.629C892.727 824.734 822.726 852.467 753 870.884C624.711 904.771 489.672 916.596 358 899.282C287.891 890.063 216.409 870.448 154 836.691C126.952 822.061 101.104 804.406 79.0394 782.911C69.1368 773.264 61.8179 759.348 51 751C51.7732 758.549 56.6807 765.536 60.4244 772C69.6008 787.845 80.6294 802.171 92.5764 816C145.643 877.428 225.601 913.102 302 935.424C374.632 956.646 450.601 966.167 526 968.015C619.278 970.3 710.411 960.388 799 929.343C880.94 900.628 948.166 851.531 990.86 775C1000.72 757.319 1011.64 737.611 1017 718L1014 718z"/>
<path style="fill:#01ffff; stroke:none;" d="M106 720L107 721L106 720z"/>
<path style="fill:#0181ff; stroke:none;" d="M592 721L593 722L592 721z"/>
<path style="fill:#019cd5; stroke:none;" d="M274 722L275 723L274 722M111 723L112 724L111 723M284 724L285 725L284 724z"/>
<path style="fill:#0181ff; stroke:none;" d="M573 724L574 725L573 724z"/>
<path style="fill:#01ffff; stroke:none;" d="M972 728L973 729L972 728z"/>
<path style="fill:#0181ff; stroke:none;" d="M121 729L122 730L121 729z"/>
<path style="fill:#019cd5; stroke:none;" d="M1006 729L1007 730L1006 729z"/>
<path style="fill:#01ffff; stroke:none;" d="M128 733L129 734L128 733z"/>
<path style="fill:#0181ff; stroke:none;" d="M965 733L966 734L965 733z"/>
<path style="fill:#019cd5; stroke:none;" d="M463 735L464 736L463 735z"/>
<path style="fill:#01ffff; stroke:none;" d="M1001 735L1002 736L1001 735z"/>
<path style="fill:#0181ff; stroke:none;" d="M416 736L417 737L416 736z"/>
<path style="fill:#01ffff; stroke:none;" d="M141 740L142 741L141 740z"/>
<path style="fill:#0181ff; stroke:none;" d="M143 741L144 742L143 741z"/>
<path style="fill:#01ffff; stroke:none;" d="M950 743L951 744L950 743z"/>
<path style="fill:#0181ff; stroke:none;" d="M994 743L995 744L994 743z"/>
<path style="fill:#01ffff; stroke:none;" d="M1005 745L1006 746L1005 745z"/>
<path style="fill:#019cd5; stroke:none;" d="M157 748L158 749L157 748M1003 749L1004 750L1003 749z"/>
<path style="fill:#0181ff; stroke:none;" d="M161 750L162 751L161 750z"/>
<path style="fill:#01ffff; stroke:none;" d="M163 751L164 752L163 751z"/>
<path style="fill:#019cd5; stroke:none;" d="M172 755L173 756L172 755z"/>
<path style="fill:#0181ff; stroke:none;" d="M174 756L175 757L174 756z"/>
<path style="fill:#01ffff; stroke:none;" d="M57 758L58 759L57 758z"/>
<path style="fill:#019cd5; stroke:none;" d="M923 758L924 759L923 758M181 759L182 760L181 759z"/>
<path style="fill:#01ffff; stroke:none;" d="M978 759L979 760L978 759z"/>
<path style="fill:#019cd5; stroke:none;" d="M919 760L920 761L919 760M977 760L978 761L977 760M917 761L918 762L917 761M55 762L56 763L55 762z"/>
<path style="fill:#01ffff; stroke:none;" d="M913 763L914 764L913 763M195 765L196 766L195 765M57 766L58 767L57 766z"/>
<path style="fill:#019cd5; stroke:none;" d="M969 767L970 768L969 767z"/>
<path style="fill:#01ffff; stroke:none;" d="M902 768L903 769L902 768M895 771L896 772L895 771M61 773L62 774L61 773M991 773L992 774L991 773z"/>
<path style="fill:#0181ff; stroke:none;" d="M885 775L886 776L885 775M224 776L225 777L224 776z"/>
<path style="fill:#019cd5; stroke:none;" d="M958 776L959 777L958 776z"/>
<path style="fill:#01ffff; stroke:none;" d="M64 778L65 779L64 778z"/>
<path style="fill:#0181ff; stroke:none;" d="M75 779L76 780L75 779M76 780L77 781L76 780z"/>
<path style="fill:#01ffff; stroke:none;" d="M77 781L78 782L77 781M869 781L870 782L869 781z"/>
<path style="fill:#0181ff; stroke:none;" d="M78 782L79 783L78 782z"/>
<path style="fill:#019cd5; stroke:none;" d="M866 782L867 783L866 782z"/>
<path style="fill:#01ffff; stroke:none;" d="M986 782L987 783L986 782M79 783L80 784L79 783z"/>
<path style="fill:#019cd5; stroke:none;" d="M863 783L864 784L863 783z"/>
<path style="fill:#0181ff; stroke:none;" d="M80 784L81 785L80 784z"/>
<path style="fill:#019cd5; stroke:none;" d="M248 784L249 785L248 784M81 785L82 786L81 785z"/>
<path style="fill:#01ffff; stroke:none;" d="M940 789L941 790L940 789z"/>
<path style="fill:#0181ff; stroke:none;" d="M72 790L73 791L72 790z"/>
<path style="fill:#019cd5; stroke:none;" d="M980 792L981 793L980 792z"/>
<path style="fill:#01ffff; stroke:none;" d="M831 793L832 794L831 793z"/>
<path style="fill:#019cd5; stroke:none;" d="M75 794L76 795L75 794z"/>
<path style="fill:#01ffff; stroke:none;" d="M91 794L92 795L91 794z"/>
<path style="fill:#019cd5; stroke:none;" d="M827 794L828 795L827 794M92 795L93 796L92 795z"/>
<path style="fill:#01ffff; stroke:none;" d="M931 795L932 796L931 795z"/>
<path style="fill:#019cd5; stroke:none;" d="M78 798L79 799L78 798z"/>
<path style="fill:#01ffff; stroke:none;" d="M812 798L813 799L812 798z"/>
<path style="fill:#019cd5; stroke:none;" d="M98 800L99 801L98 800M920 802L921 803L920 802M103 804L104 805L103 804z"/>
<path style="fill:#01ffff; stroke:none;" d="M781 805L782 806L781 805z"/>
<path style="fill:#019cd5; stroke:none;" d="M915 805L916 806L915 805z"/>
<path style="fill:#0181ff; stroke:none;" d="M333 806L334 807L333 806z"/>
<path style="fill:#01ffff; stroke:none;" d="M913 806L914 807L913 806M85 807L86 808L85 807z"/>
<path style="fill:#019cd5; stroke:none;" d="M349 809L350 810L349 809z"/>
<path style="fill:#0181ff; stroke:none;" d="M906 810L907 811L906 810M360 811L361 812L360 811M366 812L367 813L366 812M742 812L743 813L742 812M372 813L373 814L372 813z"/>
<path style="fill:#01ffff; stroke:none;" d="M91 814L92 815L91 814z"/>
<path style="fill:#019cd5; stroke:none;" d="M92 815L93 816L92 815M400 817L401 818L400 817z"/>
<path style="fill:#01ffff; stroke:none;" d="M893 817L894 818L893 817M963 817L964 818L963 817M697 818L698 819L697 818z"/>
<path style="fill:#019cd5; stroke:none;" d="M426 820L427 821L426 820z"/>
<path style="fill:#0181ff; stroke:none;" d="M436 821L437 822L436 821z"/>
<path style="fill:#01ffff; stroke:none;" d="M598 825L599 826L598 825M877 825L878 826L877 825z"/>
<path style="fill:#0181ff; stroke:none;" d="M875 826L876 827L875 826z"/>
<path style="fill:#01ffff; stroke:none;" d="M137 827L138 828L137 827z"/>
<path style="fill:#0181ff; stroke:none;" d="M873 827L874 828L873 827M862 832L863 833L862 832z"/>
<path style="fill:#01ffff; stroke:none;" d="M151 835L152 836L151 835M853 836L854 837L853 836z"/>
<path style="fill:#0181ff; stroke:none;" d="M116 839L117 840L116 839z"/>
<path style="fill:#019cd5; stroke:none;" d="M831 845L832 846L831 845z"/>
<path style="fill:#01ffff; stroke:none;" d="M938 846L939 847L938 846M937 847L938 848L937 847z"/>
<path style="fill:#0181ff; stroke:none;" d="M823 848L824 849L823 848M936 848L937 849L936 848z"/>
<path style="fill:#019cd5; stroke:none;" d="M181 850L182 851L181 850z"/>
<path style="fill:#01ffff; stroke:none;" d="M134 854L135 855L134 854z"/>
<path style="fill:#0181ff; stroke:none;" d="M195 856L196 857L195 856z"/>
<path style="fill:#01ffff; stroke:none;" d="M200 858L201 859L200 858M924 859L925 860L924 859M782 862L783 863L782 862M221 866L222 867L221 866z"/>
<path style="fill:#019cd5; stroke:none;" d="M152 867L153 868L152 867z"/>
<path style="fill:#0181ff; stroke:none;" d="M913 868L914 869L913 868z"/>
<path style="fill:#019cd5; stroke:none;" d="M158 871L159 872L158 871z"/>
<path style="fill:#0181ff; stroke:none;" d="M245 874L246 875L245 874z"/>
<path style="fill:#01ffff; stroke:none;" d="M164 875L165 876L164 875M262 879L263 880L262 879M898 879L899 880L898 879M273 882L274 883L273 882M289 886L290 887L289 886M186 888L187 889L186 888z"/>
<path style="fill:#019cd5; stroke:none;" d="M188 889L189 890L188 889z"/>
<path style="fill:#01ffff; stroke:none;" d="M647 893L648 894L647 893M876 893L877 894L876 893z"/>
<path style="fill:#0181ff; stroke:none;" d="M327 894L328 895L327 894z"/>
<path style="fill:#019cd5; stroke:none;" d="M627 896L628 897L627 896M351 898L352 899L351 898M604 899L605 900L604 899M575 902L576 903L575 902z"/>
<path style="fill:#0181ff; stroke:none;" d="M563 903L564 904L563 903z"/>
<path style="fill:#019cd5; stroke:none;" d="M550 904L551 905L550 904M220 905L221 906L220 905M416 905L417 906L416 905M227 908L228 909L227 908z"/>
<path style="fill:#01ffff; stroke:none;" d="M229 909L230 910L229 909z"/>
<path style="fill:#0181ff; stroke:none;" d="M236 912L237 913L236 912M241 914L242 915L241 914z"/>
<path style="fill:#019cd5; stroke:none;" d="M835 914L836 915L835 914z"/>
<path style="fill:#0181ff; stroke:none;" d="M246 916L247 917L246 916z"/>
<path style="fill:#01ffff; stroke:none;" d="M826 918L827 919L826 918z"/>
<path style="fill:#01a9e1; stroke:none;" d="M203 940C208.327 950.924 226.079 959.053 236 965.667C268.105 987.07 302.902 1004.81 339 1018.42C475.663 1069.97 631.264 1062.61 762 997.247C791.894 982.3 820.669 964.857 847 944.21C855.533 937.519 869.314 929.965 874 920C854.956 926.068 836.479 941.207 818 949.691C780.534 966.895 741.081 979.614 701 989.116C577.697 1018.35 440.562 1016.34 318 984.116C292.066 977.297 266.645 968.728 242 958.15C229.1 952.614 216.431 943.869 203 940z"/>
<path style="fill:#0181ff; stroke:none;" d="M806 926L807 927L806 926z"/>
<path style="fill:#019cd5; stroke:none;" d="M862 926L863 927L862 926M857 929L858 930L857 929M795 930L796 931L795 930M862 931L863 932L862 931M850 933L851 934L850 933z"/>
<path style="fill:#01ffff; stroke:none;" d="M848 934L849 935L848 934M302 935L303 936L302 935z"/>
<path style="fill:#0181ff; stroke:none;" d="M856 936L857 937L856 936z"/>
<path style="fill:#019cd5; stroke:none;" d="M774 937L775 938L774 937z"/>
<path style="fill:#0181ff; stroke:none;" d="M324 941L325 942L324 941z"/>
<path style="fill:#019cd5; stroke:none;" d="M328 942L329 943L328 942z"/>
<path style="fill:#01ffff; stroke:none;" d="M332 943L333 944L332 943z"/>
<path style="fill:#019cd5; stroke:none;" d="M847 943L848 944L847 943z"/>
<path style="fill:#0181ff; stroke:none;" d="M750 944L751 945L750 944z"/>
<path style="fill:#019cd5; stroke:none;" d="M218 947L219 948L218 947z"/>
<path style="fill:#01ffff; stroke:none;" d="M354 948L355 949L354 948z"/>
<path style="fill:#019cd5; stroke:none;" d="M359 949L360 950L359 949M730 949L731 950L730 949M224 950L225 951L224 950z"/>
<path style="fill:#0181ff; stroke:none;" d="M374 952L375 953L374 952z"/>
<path style="fill:#01ffff; stroke:none;" d="M218 953L219 954L218 953z"/>
<path style="fill:#019cd5; stroke:none;" d="M712 953L713 954L712 953M707 954L708 955L707 954M221 955L222 956L221 955z"/>
<path style="fill:#01ffff; stroke:none;" d="M235 955L236 956L235 955z"/>
<path style="fill:#0181ff; stroke:none;" d="M697 956L698 957L697 956z"/>
<path style="fill:#01ffff; stroke:none;" d="M800 957L801 958L800 957M410 958L411 959L410 958M228 960L229 961L228 960M249 961L250 962L249 961z"/>
<path style="fill:#019cd5; stroke:none;" d="M433 961L434 962L433 961z"/>
<path style="fill:#01ffff; stroke:none;" d="M231 962L232 963L231 962z"/>
<path style="fill:#019cd5; stroke:none;" d="M442 962L443 963L442 962M451 963L452 964L451 963z"/>
<path style="fill:#01ffff; stroke:none;" d="M785 963L786 964L785 963z"/>
<path style="fill:#0181ff; stroke:none;" d="M234 964L235 965L234 964z"/>
<path style="fill:#019cd5; stroke:none;" d="M642 964L643 965L642 964z"/>
<path style="fill:#01ffff; stroke:none;" d="M259 965L260 966L259 965z"/>
<path style="fill:#0181ff; stroke:none;" d="M237 966L238 967L237 966M487 966L488 967L487 966z"/>
<path style="fill:#01ffff; stroke:none;" d="M777 966L778 967L777 966z"/>
<path style="fill:#0181ff; stroke:none;" d="M267 968L268 969L267 968z"/>
<path style="fill:#019cd5; stroke:none;" d="M531 968L532 969L531 968z"/>
<path style="fill:#0181ff; stroke:none;" d="M807 971L808 972L807 971z"/>
<path style="fill:#01ffff; stroke:none;" d="M248 973L249 974L248 973z"/>
<path style="fill:#019cd5; stroke:none;" d="M253 976L254 977L253 976z"/>
<path style="fill:#01ffff; stroke:none;" d="M799 976L800 977L799 976z"/>
<path style="fill:#0181ff; stroke:none;" d="M297 978L298 979L297 978z"/>
<path style="fill:#01ffff; stroke:none;" d="M304 980L305 981L304 980M263 982L264 983L263 982z"/>
<path style="fill:#019cd5; stroke:none;" d="M778 988L779 989L778 988M339 989L340 990L339 989z"/>
<path style="fill:#0181ff; stroke:none;" d="M369 995L370 996L369 995z"/>
<path style="fill:#01ffff; stroke:none;" d="M289 996L290 997L289 996M291 997L292 998L291 997M659 997L660 998L659 997M293 998L294 999L293 998z"/>
<path style="fill:#019cd5; stroke:none;" d="M387 998L388 999L387 998z"/>
<path style="fill:#0181ff; stroke:none;" d="M401 1000L402 1001L401 1000z"/>
<path style="fill:#01ffff; stroke:none;" d="M426 1003L427 1004L426 1003z"/>
<path style="fill:#019cd5; stroke:none;" d="M436 1004L437 1005L436 1004z"/>
<path style="fill:#01ffff; stroke:none;" d="M310 1006L311 1007L310 1006z"/>
<path style="fill:#0181ff; stroke:none;" d="M480 1007L481 1008L480 1007z"/>
<path style="fill:#019cd5; stroke:none;" d="M735 1009L736 1010L735 1009z"/>
<path style="fill:#0181ff; stroke:none;" d="M324 1012L325 1013L324 1012z"/>
<path style="fill:#019cd5; stroke:none;" d="M723 1014L724 1015L723 1014M718 1016L719 1017L718 1016z"/>
<path style="fill:#01ffff; stroke:none;" d="M713 1018L714 1019L713 1018z"/>
<path style="fill:#0181ff; stroke:none;" d="M702 1022L703 1023L702 1022z"/>
<path style="fill:#019cd5; stroke:none;" d="M353 1023L354 1024L353 1023M356 1024L357 1025L356 1024M365 1027L366 1028L365 1027z"/>
<path style="fill:#01ffff; stroke:none;" d="M656 1036L657 1037L656 1036M413 1040L414 1041L413 1040z"/>
<path style="fill:#019cd5; stroke:none;" d="M428 1043L429 1044L428 1043M460 1048L461 1049L460 1048z"/>
<path d="m7.1 32c3 2.3 6.8 3.7 10.9 3.7 4.5 0 8.6-1.7 11.7-4.4-1.4.9-5.4 3-11.7 3-5.5 0-9-1.2-10.9-2.3m12.1.9c4.4 0 9.2-1.2 12-3.6.8-.6 1.5-1.5 2.2-2.6.4-.7.8-1.5 1.1-2.2-2.7 3.9-10.4 6.4-18.4 6.4-5.6 0-11.7-1.8-14.1-5.3 2.2 4.8 8.9 7.3 17.2 7.3m-4.8-7.8c-9.1 0-13.4-4.2-14.1-7.1 0 1 .1 2.2.3 3.1.1.4.4 1 .9 1.6 2.2 2.3 7.7 5.5 17.2 5.5 12.9 0 15.9-4.3 16.5-5.7.4-1 .7-2.8.7-4.4v-1c-.9 3.4-11.9 8-21.5 8m-12.5-14.7c-.5 1-1.1 2.8-1.3 3.7-.1.4 0 .6.1.9 1.1 2.3 6.6 6 19.4 6 7.8 0 13.9-1.9 14.9-5.4.2-.6.2-1.3 0-2.2-.3-1-.7-2.2-1.2-3.1.1 4.6-12.7 7.6-19.2 7.6-7 0-12.9-2.8-12.9-6.3.1-.5.2-.9.2-1.2m27.8-5.7c.1.1.1.2.1.4 0 2-6 5.4-15.6 5.4-7.1 0-8.4-2.6-8.4-4.3 0-.6.2-1.2.7-1.8-.9.9-1.7 1.7-2.5 2.7-.3.4-.5.8-.5 1 0 3.5 8.7 5.9 16.7 5.9 8.6 0 12.5-2.8 12.5-5.3 0-.9-.3-1.4-1.2-2.4-.6-.6-1.2-1.1-1.8-1.6m-2.6-1.9c-2.7-1.6-5.7-2.5-9.1-2.5s-6.5.9-9.2 2.6c-.8.4-1.3.8-1.3 1.3 0 1.5 3.5 3.1 9.7 3.1 6.1 0 10.9-1.8 10.9-3.5.1-.3-.3-.6-1-1" fill="#009fdb"></path>
</svg>