<?xml version="1.0" standalone="no"?>
<!DOCTYPE svg PUBLIC "-//W3C//DTD SVG 20010904//EN"
 "http://www.w3.org/TR/2001/REC-SVG-20010904/DTD/svg10.dtd">
<svg version="1.0" xmlns="http://www.w3.org/2000/svg"
 width="500" height="500" viewBox="0 0 500 500"
 preserveAspectRatio="xMidYMid meet">
<g>
  <rect width="500" height="500" style="fill:#292929"/>
</g>
<g transform="translate(70,450) scale(0.100000,-0.100000)"
fill="#363636" stroke="none">
<path d="M1565 3912 c-93 -54 -379 -219 -635 -367 -256 -147 -570 -328 -698
-402 l-232 -135 0 -1003 0 -1003 148 -85 c219 -127 595 -343 1077 -622 237
-137 449 -259 472 -272 l41 -24 264 152 c300 173 676 390 1151 665 l327 189 0
1001 0 1001 -292 168 c-161 93 -549 317 -863 498 -314 181 -574 331 -580 333
-5 2 -86 -40 -180 -94z m277 -1076 c8 -95 99 -180 207 -193 29 -3 57 -1 70 7
32 17 38 4 10 -19 -43 -35 -93 -46 -152 -32 -69 15 -110 41 -143 91 -31 46
-43 127 -25 173 16 42 28 32 33 -27z m-199 -46 c-15 -147 106 -301 272 -345
87 -23 188 -1 248 53 15 14 27 23 27 19 0 -14 -24 -57 -32 -57 -4 0 -8 -5 -8
-11 0 -16 -26 -36 -85 -64 -42 -21 -65 -25 -141 -25 -83 0 -98 3 -150 31 -79
41 -127 89 -159 161 -24 53 -27 70 -23 142 2 68 7 89 28 119 14 20 26 37 27
37 2 0 0 -27 -4 -60z m-224 -70 c-33 -141 61 -340 207 -441 126 -87 299 -109
424 -54 36 16 80 42 99 59 l34 31 -19 -34 c-38 -67 -101 -127 -166 -157 -55
-25 -77 -29 -175 -32 -116 -4 -163 6 -256 55 -58 30 -148 125 -182 193 -71
143 -68 310 7 395 17 20 32 34 34 33 1 -2 -2 -24 -7 -48z m-818 -800 c14 -8
19 -21 19 -48 0 -47 -14 -62 -60 -62 -46 0 -60 15 -60 62 0 52 49 75 101 48z
m490 -37 c109 -35 169 -134 169 -278 0 -138 -44 -224 -137 -270 l-57 -28 27
-23 c17 -14 47 -26 77 -30 46 -6 50 -9 50 -34 0 -47 -21 -55 -100 -41 -82 15
-128 43 -153 93 -14 29 -25 37 -55 43 -82 15 -148 74 -178 157 -19 54 -18 203
1 257 49 140 198 205 356 154z m1035 -148 c44 -18 75 -81 82 -162 l5 -63 -136
0 c-77 0 -138 -4 -142 -10 -10 -17 24 -69 57 -86 25 -13 47 -15 104 -10 l73 7
7 -36 c10 -54 -2 -60 -125 -60 -98 0 -111 2 -144 25 -21 14 -47 45 -59 69 -43
88 -21 250 40 304 50 45 159 55 238 22z m420 15 c20 0 24 -5 24 -32 0 -52 -11
-61 -64 -53 -35 6 -52 3 -71 -9 -25 -16 -25 -17 -25 -176 l0 -160 -50 0 -50 0
0 204 c0 132 4 207 10 211 16 10 141 24 174 19 16 -2 39 -4 52 -4z m-1936
-240 c0 -186 -3 -237 -16 -269 -20 -50 -61 -71 -143 -71 -66 0 -66 1 -55 58 6
28 10 31 47 34 63 5 67 18 67 266 l0 212 50 0 50 0 0 -230z m862 84 l3 -146
29 -24 c22 -20 37 -24 70 -22 l41 3 3 168 2 167 55 0 55 0 0 -204 c0 -185 -2
-205 -17 -211 -10 -4 -65 -10 -123 -12 -128 -5 -163 8 -197 77 -21 40 -23 58
-23 197 l0 153 49 0 50 0 3 -146z m1256 91 c24 -92 76 -225 86 -222 9 3 40
100 76 235 l11 42 49 0 c40 0 50 -3 50 -16 0 -45 -113 -362 -163 -457 -42 -79
-76 -99 -167 -95 l-65 3 0 40 0 40 48 -3 c43 -3 51 0 77 29 17 17 30 35 30 40
0 5 -16 42 -35 82 -57 124 -115 283 -115 320 0 15 7 18 52 15 l52 -3 14 -50z"/>
<path d="M913 1771 c-74 -47 -102 -187 -55 -278 27 -52 59 -74 115 -80 77 -9
131 34 163 129 23 71 7 145 -45 201 -33 35 -44 41 -92 44 -42 3 -61 0 -86 -16z"/>
<path d="M1965 1628 l-28 -33 78 -3 c42 -2 80 0 83 3 3 3 -3 18 -15 33 -14 19
-31 28 -55 30 -30 3 -40 -2 -63 -30z"/>
</g>
</svg>
