<svg xmlns="http://www.w3.org/2000/svg" version="1.0" width="225" height="225" viewBox="0 0 225 225" preserveAspectRatio="xMidYMid meet" background="#000">
  <g>
    <rect width="300" height="300" style="fill:#292929" />
  </g>
  <g transform="translate(0.000000,225.000000) scale(0.100000,-0.100000)" fill="#363636" stroke="none">
    <path d="M810 1343 c-1 -452 -4 -477 -70 -521 -31 -21 -44 -23 -105 -19 -38 2 -77 7 -86 11 -13 6 -17 -3 -22 -51 -4 -32 -9 -79 -13 -105 l-6 -46 58 -12 c32 -7 98 -10 148 -8 74 4 101 9 143 31 95 49 152 128 173 239 6 28 10 237 10 464 l0 414 -115 0 -115 0 0 -397z"/>
    <path d="M1410 1435 c-108 -31 -180 -102 -200 -201 -28 -133 38 -232 200 -299 83 -34 110 -59 110 -100 0 -47 -28 -67 -93 -67 -52 0 -152 25 -172 43 -21 20 -32 5 -50 -68 -10 -43 -20 -83 -22 -89 -2 -6 30 -22 76 -38 135 -44 287 -32 382 31 80 53 121 156 99 256 -21 99 -77 155 -212 211 -36 15 -74 36 -83 46 -23 25 -22 65 0 90 24 26 100 26 175 0 30 -10 55 -18 56 -17 8 11 34 159 29 167 -9 15 -104 40 -175 45 -42 3 -85 -1 -120 -10z"/>
  </g>
</svg>